<?xml version="1.0" encoding="utf-8"?>
<!-- Generator: Adobe Illustrator 23.0.6, SVG Export Plug-In . SVG Version: 6.00 Build 0)  -->
<svg version="1.1" id="Layer_1" xmlns="http://www.w3.org/2000/svg" xmlns:xlink="http://www.w3.org/1999/xlink" x="0px" y="0px"
	 viewBox="0 0 1003.3 158.2" style="enable-background:new 0 0 1003.3 158.2;" xml:space="preserve">
<style type="text/css">
	.st0{fill:#FFFFFF;}
</style>
<title>Logo</title>
<desc>Created with Sketch.</desc>
<g>
	<g>
		<path class="st0" d="M67.6,153h-20c-2-5.3-3.3-10.7-4-17.4c-1.3-8.7-4.7-14-10.7-14c-2,0-4,0-6.7,0h-6.7v32.1H0.8V72.2h30.7
			c4.7,0,8,0,12.7,0.7c11.4,1.3,21.4,7.4,21.4,21.4c0,10.7-6,16.7-16,20c8,3.3,11.4,9.4,12.7,18.7C63,142.3,65,148.3,67.6,153z
			 M28.9,108.3c2.7,0,4.7,0,6.7,0c6-0.7,10.7-3.3,10.7-10.7s-4.7-10-10.7-10.7c-1.3,0-4-0.7-6.7-0.7h-10v21.4
			C18.8,108.3,28.9,108.3,28.9,108.3z"/>
		<path class="st0" d="M139.8,153H79.7V72.2h59.5v14H98.4v19.4h37.4v14H97.7V139h42.1V153z"/>
		<path class="st0" d="M171.9,130.3l-7.4,22.7h-19.4l29.4-81.5h22.7L226,153h-20l-7.4-22.7C197.9,130.3,171.9,130.3,171.9,130.3z
			 M176.6,115.6h17.4l-8.7-28.1L176.6,115.6z"/>
		<path class="st0" d="M304.2,98.2v1.3h-18.7l-0.7-1.3c-2-9.4-7.4-14-17.4-14c-11.4,0-20,10-20,28.1c0,20,9.4,29.4,20,29.4
			c9.4,0,15.4-5.3,17.4-15.4l0.7-1.3h18.7v1.3c-2,18.7-16,28.7-36.8,28.7c-22.1,0-38.8-15.4-38.8-42.1c0-27.4,17.4-42.8,40.1-42.8
			C291.5,70.2,302.9,82.2,304.2,98.2z"/>
		<path class="st0" d="M355.7,86.2V153H337V86.2h-27.4v-14h72.8v14H355.7z"/>
		<path class="st0" d="M445.9,94.2h-10.7c-1.3-10-6.7-16-17.4-16c-8.7,0-15.4,4-15.4,12.7s4.7,12.7,17.4,15.4
			c18,4,26.7,11.4,26.7,25.4S433.9,155,418.5,155c-18,0-29.4-9.4-30.7-24.7h10.7c2,10.7,10,16.7,20,16.7c9.4,0,16.7-4.7,16.7-13.4
			c0-10-5.3-14-20-18c-14-3.3-24.7-9.4-24.7-22.7c0-14,12-22.7,27.4-22.7C435.9,70.2,444.5,80.2,445.9,94.2z"/>
		<path class="st0" d="M527.4,153h-10v-35.4h-44.8V153h-10V72.2h10v37.4h44.8V72.2h10V153z"/>
		<path class="st0" d="M619.6,112.9c0,24.7-13.4,42.1-38.8,42.1c-24.7,0-38.8-18-38.8-42.1c0-24.7,13.4-42.1,38.8-42.1
			C605.6,70.2,619.6,88.2,619.6,112.9z M608.3,112.9c0-21.4-10-34.1-27.4-34.1s-27.4,13.4-27.4,34.1s10,34.1,27.4,34.1
			C597.6,147,608.3,133.6,608.3,112.9z"/>
		<path class="st0" d="M689.1,153H635V72.2h52.8v8H645v28.1h39.4v8H645v28.1h44.1V153z"/>
		<path class="st0" d="M757.3,94.2h-10.7c-1.3-10-6.7-16-17.4-16c-8.7,0-15.4,4-15.4,12.7s4.7,12.7,17.4,15.4
			c18,4,26.7,11.4,26.7,25.4S745.3,155,729.9,155c-18,0-29.4-9.4-30.7-24.7h10.7c2,10.7,10,16.7,20,16.7c9.4,0,16.7-4.7,16.7-13.4
			c0-10-5.3-14-20-18c-14.7-4-24.7-9.4-24.7-22.7c0-14,12-22.7,27.4-22.7C746.6,70.2,756,80.2,757.3,94.2z"/>
	</g>
	<g id="noun_Running_1473810_1_" transform="translate(224.890323, 0.000000)">
		<g id="Group_1_">
			<path id="Path_1_" class="st0" d="M652.6,136.3c0-2-1.3-3.3-3.3-3.3h-54.1c-2,0-3.3,1.3-3.3,3.3s1.3,3.3,3.3,3.3h54.1
				C651.3,139,652.6,137.7,652.6,136.3z"/>
			<path class="st0" d="M607.2,148.3h-6c-2,0-3.3,1.3-3.3,3.3s1.3,3.3,3.3,3.3h6c2,0,3.3-1.3,3.3-3.3S609.2,148.3,607.2,148.3z"/>
			<path class="st0" d="M621.9,120.9c0-2-1.3-3.3-3.3-3.3h-30.1c-2,0-3.3,1.3-3.3,3.3c0,2,1.3,3.3,3.3,3.3h30.1
				C621.2,123.6,621.9,122.3,621.9,120.9z"/>
			<path id="Shape_1_" class="st0" d="M777,126.3c-0.7-2-2.7-3.3-4.7-4l-24.1-9.4l0,0l0,0l-10-3.3c-2.7-1.3-5.3-3.3-6.7-5.3l-8-13.4
				c1.3-0.7,2.7-1.3,2.7-3.3s-1.3-3.3-3.3-3.3h-3.3l-4-6c1.3-0.7,2.7-1.3,2.7-3.3c0-2-1.3-3.3-3.3-3.3h-3.3l-3.3-4.7
				c1.3-0.7,2-1.3,2-2.7c0-2-1.3-3.3-3.3-3.3h-2.7l-4-6.7c0,0,0-0.7-0.7-0.7c-4-4-8.7-6.7-14-6c-4.7,0.7-8,3.3-10,6.7
				c-0.7,0.7-0.7,2,0.7,2.7l25.4,43.4c0.7,0.7,0.7,1.3,1.3,1.3l31.4,12h0.7l9.4,3.3l0,0l0,0l0,0l0,0l0,0l23.4,9.4
				c0.7,0.7,1.3,0.7,1.3,1.3c1.3,2.7,1.3,4.7-0.7,7.4h-51.5c-3.3,0-6-0.7-8.7-2.7l-86.9-64.2c0,0,1.3-0.7,2.7-2.7c1.3-2,2-4.7,2-7.4
				l-3.3-26.1l4-6c0.7-1.3,2.7-1.3,4-0.7c0.7,0.7,4.7,4,13.4,18.7c4.7,6.7,12,11.4,20,12.7c1.3,0.7,3.3-0.7,4-2.7
				c0.7-1.3-0.7-3.3-2.7-4c-6.7-1.3-12.7-4.7-16.7-10.7c-10.7-16.7-14-19.4-15.4-20c-4-2-9.4-1.3-12.7,3.3l-18.7,30.1
				c-1.3,2-1.3,4-1.3,6c-2,0.7-4,1.3-4.7,3.3l-4.7,7.4c-2.7,4-1.3,9.4,2.7,12.7c2.7,2,8.7,6,17.4,11.4c0,0.7,0.7,1.3,1.3,1.3
				s2-0.7,2.7-1.3c0.7-1.3,0.7-3.3-0.7-4c-8-5.3-14-9.4-16.7-11.4c-1.3-0.7-1.3-2.7-0.7-4l4.7-7.4c0.7-1.3,2.7-1.3,4-0.7l0,0
				l97.6,72.2c4,2.7,8,4,12.7,4h42.8c-6.7,3.3-15.4,6-23.4,6l0,0h-10.7h-9.4l0,0c-5.3,0-10.7-1.3-15.4-4
				c-18-11.4-51.5-32.7-76.2-48.1c-2-1.3-4-1.3-4.7,0.7c-0.7,1.3-0.7,3.3,0.7,4c24.1,15.4,56.8,36.1,74.8,48.1h-80.2
				c-2,0-3.3,1.3-3.3,3.3c0,2,1.3,3.3,3.3,3.3h100.2l0,0h9.4h10.7l0,0c12.7,0,30.7-6.7,36.1-13.4C779,136.3,779.6,131,777,126.3z
				 M708.1,98.2l-24.7-41.4c0.7-0.7,2.7-2,4.7-2c2-0.7,5.3,0,8,3.3l2,3.3h-2.7c-2,0-3.3,1.3-3.3,3.3c0,2,1.3,3.3,3.3,3.3h6.7
				l3.3,4.7h-2.7c-2,0-3.3,1.3-3.3,3.3s1.3,3.3,3.3,3.3h6l4,6h-2.7c-2,0-3.3,1.3-3.3,3.3c0,2,1.3,3.3,3.3,3.3h6l8.7,13.4L708.1,98.2
				z M612.5,56.8l10-15.4l2,18c0,1.3-0.7,2.7-0.7,3.3c-0.7,0.7-2,3.3-4.7,1.3c0,0-1.3-0.7-4.7-3.3C611.9,60.1,611.9,58.8,612.5,56.8
				z"/>
		</g>
	</g>
</g>
</svg>
